<svg xmlns="http://www.w3.org/2000/svg" xmlns:xlink="http://www.w3.org/1999/xlink" width="1920" zoomAndPan="magnify" viewBox="0 0 1440 809.999993" height="1080" preserveAspectRatio="xMidYMid meet" version="1.0"><defs><g/><clipPath id="c06cab9aa9"><path d="M 0 243.867188 L 275.707031 243.867188 L 275.707031 519.574219 L 0 519.574219 Z M 0 243.867188 " clip-rule="nonzero"/></clipPath><clipPath id="e77adc7665"><path d="M 137.851562 243.867188 L 0 381.722656 L 68.925781 381.722656 L 68.925781 519.574219 L 206.78125 519.574219 L 206.78125 381.722656 L 275.707031 381.722656 Z M 137.851562 243.867188 " clip-rule="nonzero"/></clipPath><clipPath id="2ba2dee2c7"><path d="M 0 0.867188 L 275.707031 0.867188 L 275.707031 276.574219 L 0 276.574219 Z M 0 0.867188 " clip-rule="nonzero"/></clipPath><clipPath id="b38bb1a49b"><path d="M 137.851562 0.867188 L 0 138.722656 L 68.925781 138.722656 L 68.925781 276.574219 L 206.78125 276.574219 L 206.78125 138.722656 L 275.707031 138.722656 Z M 137.851562 0.867188 " clip-rule="nonzero"/></clipPath><clipPath id="f9004784a1"><rect x="0" width="276" y="0" height="277"/></clipPath></defs><g fill="#ffffff" fill-opacity="1"><g transform="translate(275.711419, 490.609771)"><g><path d="M 183.78125 0 L 109.234375 0 L 2 -191.25 L 83.359375 -191.25 L 146.578125 -54.546875 L 209.65625 -191.25 L 291.015625 -191.25 Z M 183.78125 0 "/></g></g></g><g fill="#ffffff" fill-opacity="1"><g transform="translate(544.712015, 490.609771)"><g><path d="M 144.703125 4.140625 C 97.398438 4.140625 62.59375 -5.597656 40.28125 -25.078125 C 20.539062 -42.328125 10.671875 -65.84375 10.671875 -95.625 C 10.671875 -125.320312 20.539062 -148.796875 40.28125 -166.046875 C 62.59375 -185.515625 97.398438 -195.25 144.703125 -195.25 C 192.003906 -195.25 226.816406 -185.515625 249.140625 -166.046875 C 268.867188 -148.796875 278.734375 -125.320312 278.734375 -95.625 C 278.734375 -65.84375 268.867188 -42.328125 249.140625 -25.078125 C 226.816406 -5.597656 192.003906 4.140625 144.703125 4.140625 Z M 144.703125 -47.21875 C 164.085938 -47.21875 178.316406 -52.773438 187.390625 -63.890625 C 194.679688 -72.867188 198.328125 -83.445312 198.328125 -95.625 C 198.328125 -107.800781 194.679688 -118.335938 187.390625 -127.234375 C 178.316406 -138.429688 164.085938 -144.03125 144.703125 -144.03125 C 125.316406 -144.03125 111.046875 -138.429688 101.890625 -127.234375 C 94.597656 -118.335938 90.953125 -107.800781 90.953125 -95.625 C 90.953125 -83.445312 94.597656 -72.867188 101.890625 -63.890625 C 111.046875 -52.773438 125.316406 -47.21875 144.703125 -47.21875 Z M 144.703125 -47.21875 "/></g></g></g><g fill="#ffffff" fill-opacity="1"><g transform="translate(834.117748, 490.609771)"><g><path d="M 282.609375 0 L 206.71875 0 C 203.25 -4.800781 200.804688 -10.9375 199.390625 -18.40625 C 198.140625 -24.1875 196.269531 -29.851562 193.78125 -35.40625 C 191.289062 -40.96875 187 -45.59375 180.90625 -49.28125 C 174.820312 -52.96875 165.78125 -54.945312 153.78125 -55.21875 L 101.625 -55.21875 L 101.625 0 L 21.34375 0 L 21.34375 -191.390625 L 151.90625 -191.390625 C 183.113281 -191.390625 208.296875 -189.050781 227.453125 -184.375 C 246.617188 -179.707031 260.601562 -172.375 269.40625 -162.375 C 278.207031 -152.375 282.609375 -139.328125 282.609375 -123.234375 C 282.609375 -109.804688 279.5625 -98.515625 273.46875 -89.359375 C 267.382812 -80.203125 257.757812 -72.957031 244.59375 -67.625 C 257.3125 -62.375 265.554688 -56.082031 269.328125 -48.75 C 273.109375 -41.414062 275.445312 -33.347656 276.34375 -24.546875 C 277.226562 -16.710938 279.316406 -8.53125 282.609375 0 Z M 101.625 -102.421875 L 147.5 -102.5625 C 160.3125 -102.5625 170.40625 -103.140625 177.78125 -104.296875 C 185.15625 -105.453125 190.597656 -107.03125 194.109375 -109.03125 C 197.628906 -111.03125 199.878906 -113.25 200.859375 -115.6875 C 201.835938 -118.132812 202.328125 -120.648438 202.328125 -123.234375 C 202.328125 -125.804688 201.835938 -128.335938 200.859375 -130.828125 C 199.878906 -133.316406 197.628906 -135.5625 194.109375 -137.5625 C 190.597656 -139.570312 185.15625 -141.148438 177.78125 -142.296875 C 170.40625 -143.453125 160.3125 -144.03125 147.5 -144.03125 L 101.625 -144.03125 Z M 101.625 -102.421875 "/></g></g></g><g fill="#ffffff" fill-opacity="1"><g transform="translate(1127.391126, 490.609771)"><g><path d="M 305.28125 0 L 209.796875 0 L 101.625 -129.5 L 101.625 0 L 21.34375 0 L 21.34375 -191.390625 L 116.828125 -191.390625 L 225 -62.546875 L 225 -191.390625 L 305.28125 -191.390625 Z M 305.28125 0 "/></g></g></g><g clip-path="url(#c06cab9aa9)"><g clip-path="url(#e77adc7665)"><g transform="matrix(1, 0, 0, 1, 0, 243)"><g clip-path="url(#f9004784a1)"><g clip-path="url(#2ba2dee2c7)"><g clip-path="url(#b38bb1a49b)"><path fill="#ffffff" d="M 0 276.574219 L 0 0.867188 L 275.707031 0.867188 L 275.707031 276.574219 Z M 0 276.574219 " fill-opacity="1" fill-rule="nonzero"/></g></g></g></g></g></g></svg>